<svg width="34" height="48" viewBox="0 0 34 48" fill="none" xmlns="http://www.w3.org/2000/svg">
<path d="M32.1786 0C33.1007 0 33.8628 0.773897 33.9835 1.778L34 2.05714V45.9429C34 47.0789 33.1845 48 32.1786 48C31.2564 48 30.4944 47.226 30.3737 46.2221L30.3571 45.9429V32.2286H24.8929C23.9707 32.2286 23.2086 31.4545 23.0879 30.4507L23.0714 30.1714V10.2857C23.0714 4.60507 27.1488 0 32.1786 0ZM17.6071 0C18.5293 0 19.2914 0.773897 19.4121 1.778L19.4286 2.05714V13.0286C19.4286 18.3842 16.0308 22.8436 11.5372 23.8072L11.5357 45.9429C11.5357 47.0789 10.7202 48 9.71429 48C8.79216 48 8.0301 47.226 7.90949 46.2221L9.71429 48L7.8938 23.8077C3.55946 22.8795 0.244169 18.6994 0.0128959 13.5989L0 13.0286V2.05714C0 0.921024 0.81549 0 1.82143 0C2.74356 0 3.50562 0.773897 3.62622 1.778L3.64286 2.05714V13.0286C3.64286 16.0994 5.43011 18.6986 7.89388 19.5722L7.89286 2.05714C7.89286 0.921024 8.70835 0 9.71429 0C10.6364 0 11.3985 0.773897 11.5191 1.778L11.5357 2.05714L11.5371 19.5714C13.8628 18.7455 15.5851 16.3818 15.7694 13.5356L15.7857 13.0286V2.05714C15.7857 0.921024 16.6012 0 17.6071 0ZM30.3571 28.1143V4.46545C28.3596 5.26283 26.8952 7.33467 26.7298 9.81589L26.7143 10.2857V28.1143H30.3571Z" fill="#212121"/>
</svg>
