<svg width="32" height="48" viewBox="0 0 32 48" fill="none" xmlns="http://www.w3.org/2000/svg">
<path d="M31.2061 0.941579C31.2792 1.12475 31.3154 1.32054 31.3127 1.51773C31.31 1.71492 31.2685 1.90965 31.1905 2.09077C31.1125 2.27189 30.9995 2.43585 30.858 2.57326C30.7166 2.71067 30.5494 2.81884 30.3661 2.89158L23.6041 5.59758L22.4041 11.3786C23.5321 11.6636 24.5491 12.0236 25.3201 12.4796C26.0041 12.8846 27.0001 13.6676 27.0001 14.9396C27.0001 15.0776 26.9881 15.2096 26.9671 15.3356L24.0811 42.5396C24.0353 43.0904 23.8711 43.6248 23.5998 44.1063C23.3285 44.5878 22.9565 45.0051 22.5091 45.3296C21.0451 46.3496 18.0271 47.9396 13.4791 47.9396C8.9311 47.9396 5.9131 46.3496 4.4491 45.3296C4.00173 45.0051 3.62969 44.5878 3.35838 44.1063C3.08708 43.6248 2.92292 43.0904 2.8771 42.5396L0.0301022 15.3356C0.00889878 15.2047 -0.00113733 15.0722 0.000102216 14.9396C0.000102216 13.6676 0.996102 12.8846 1.6801 12.4796C2.4661 12.0176 3.5011 11.6516 4.6501 11.3636C6.9721 10.7816 10.1011 10.4396 13.5001 10.4396C15.6361 10.4396 17.6671 10.5746 19.4551 10.8206L20.8471 4.17558C20.9001 3.93697 21.0107 3.71494 21.1691 3.5288C21.3275 3.34266 21.529 3.19806 21.7561 3.10758L29.2561 0.107579C29.6253 -0.0403225 30.0381 -0.0355511 30.4038 0.120844C30.7694 0.277239 31.058 0.572454 31.2061 0.941579ZM18.8041 13.7606C17.0447 13.5417 15.2731 13.4344 13.5001 13.4396C10.2721 13.4396 7.4011 13.7696 5.3791 14.2736C4.70966 14.4272 4.05812 14.6504 3.4351 14.9396C3.8731 15.1586 4.5211 15.3896 5.3791 15.6056C7.4011 16.1096 10.2721 16.4396 13.5001 16.4396C15.2131 16.4396 16.8271 16.3496 18.2641 16.1846L18.8041 13.7606ZM19.6801 19.0286C17.8351 19.2896 15.7261 19.4396 13.5001 19.4396C10.1011 19.4396 6.9721 19.0976 4.6501 18.5156C4.21007 18.4065 3.7747 18.2794 3.3451 18.1346L5.8591 42.2246C5.8981 42.5876 6.0391 42.7826 6.1651 42.8696C7.2361 43.6166 9.6691 44.9396 13.4791 44.9396C17.2891 44.9396 19.7221 43.6166 20.7931 42.8696C20.9191 42.7826 21.0631 42.5876 21.0991 42.2246L23.6551 18.1346C23.2255 18.2794 22.7901 18.4065 22.3501 18.5156C21.4694 18.7309 20.5782 18.9041 19.6801 19.0286ZM2.9011 14.5916C2.9011 14.5916 2.9101 14.5976 2.9161 14.6096L2.9011 14.5916ZM24.0991 14.5916L24.0841 14.6096C24.0901 14.5976 24.0991 14.5916 24.0991 14.5916ZM23.5621 14.9396C22.9809 14.6691 22.3738 14.458 21.7501 14.3096L21.4531 15.6446L21.6181 15.6056C22.4761 15.3896 23.1241 15.1586 23.5621 14.9396Z" fill="black"/>
</svg>
