<svg width="40" height="34" viewBox="0 0 40 34" fill="none" xmlns="http://www.w3.org/2000/svg">
<path d="M39.2001 7.4C39.2001 3.416 35.9841 0.199997 32 0.199997H8.00005C4.01605 0.199997 0.800049 3.416 0.800049 7.4C0.800049 10.52 2.81605 13.16 5.60005 14.168V30.2C5.60005 32.192 7.20805 33.8 9.20005 33.8H30.8001C32.792 33.8 34.4001 32.192 34.4001 30.2V14.168C37.1841 13.16 39.2001 10.52 39.2001 7.4ZM33.2001 10.76L30.8001 11.6V30.176H9.20005V11.624L6.80005 10.784C5.36005 10.28 4.40005 8.912 4.40005 7.424C4.40005 5.432 6.00805 3.824 8.00005 3.824H32C33.9921 3.824 35.6001 5.432 35.6001 7.424C35.6001 8.912 34.64 10.256 33.2001 10.76Z" fill="black"/>
<path d="M21.7039 12.896C21.2239 12.44 20.6239 12.2 19.9999 12.2C19.3759 12.2 18.7759 12.44 18.2959 12.896L13.4959 17.696C12.5599 18.632 12.5599 20.144 13.4959 21.08L18.2959 25.88C18.7759 26.36 19.3759 26.6 19.9999 26.6C20.6239 26.6 21.2239 26.36 21.7039 25.904L26.5039 21.104C27.4399 20.168 27.4399 18.656 26.5039 17.72L21.7039 12.896ZM19.9999 22.496L16.9039 19.4L19.9999 16.304L23.0959 19.4L19.9999 22.496Z" fill="black"/>
</svg>
