<svg width="48" height="48" viewBox="0 0 48 48" fill="none" xmlns="http://www.w3.org/2000/svg">
<g clip-path="url(#clip0_66_3919)">
<path d="M40 44H8C7.46957 44 6.96086 43.7893 6.58579 43.4142C6.21071 43.0391 6 42.5304 6 42V6C6 5.46957 6.21071 4.96086 6.58579 4.58579C6.96086 4.21071 7.46957 4 8 4H40C40.5304 4 41.0391 4.21071 41.4142 4.58579C41.7893 4.96086 42 5.46957 42 6V42C42 42.5304 41.7893 43.0391 41.4142 43.4142C41.0391 43.7893 40.5304 44 40 44ZM38 40V8H10V40H38ZM18 12V16C18 17.5913 18.6321 19.1174 19.7574 20.2426C20.8826 21.3679 22.4087 22 24 22C25.5913 22 27.1174 21.3679 28.2426 20.2426C29.3679 19.1174 30 17.5913 30 16V12H34V16C34 18.6522 32.9464 21.1957 31.0711 23.0711C29.1957 24.9464 26.6522 26 24 26C21.3478 26 18.8043 24.9464 16.9289 23.0711C15.0536 21.1957 14 18.6522 14 16V12H18Z" fill="black"/>
</g>
<defs>
<clipPath id="clip0_66_3919">
<rect width="48" height="48" fill="white"/>
</clipPath>
</defs>
</svg>
