<svg width="49" height="49" viewBox="0 0 49 49" fill="none" xmlns="http://www.w3.org/2000/svg">
<path d="M24.7969 4.6739C25.3273 4.6739 25.836 4.88462 26.2111 5.25969C26.5862 5.63476 26.7969 6.14347 26.7969 6.6739V8.6739C26.7969 9.20434 26.5862 9.71304 26.2111 10.0881C25.836 10.4632 25.3273 10.6739 24.7969 10.6739C24.2664 10.6739 23.7577 10.4632 23.3827 10.0881C23.0076 9.71304 22.7969 9.20434 22.7969 8.6739V6.6739C22.7969 6.14347 23.0076 5.63476 23.3827 5.25969C23.7577 4.88462 24.2664 4.6739 24.7969 4.6739ZM38.9389 10.5319C39.3138 10.907 39.5244 11.4156 39.5244 11.9459C39.5244 12.4762 39.3138 12.9848 38.9389 13.3599L37.5249 14.7739C37.3404 14.9649 37.1197 15.1173 36.8757 15.2221C36.6317 15.3269 36.3692 15.3821 36.1037 15.3844C35.8381 15.3867 35.5748 15.3361 35.329 15.2355C35.0832 15.135 34.8599 14.9865 34.6721 14.7987C34.4843 14.6109 34.3358 14.3876 34.2352 14.1418C34.1347 13.896 34.0841 13.6327 34.0864 13.3671C34.0887 13.1015 34.1439 12.8391 34.2487 12.5951C34.3535 12.3511 34.5059 12.1304 34.6969 11.9459L36.1109 10.5319C36.4859 10.157 36.9945 9.94633 37.5249 9.94633C38.0552 9.94633 38.5638 10.157 38.9389 10.5319ZM10.6549 10.5319C11.0299 10.157 11.5385 9.94633 12.0689 9.94633C12.5992 9.94633 13.1078 10.157 13.4829 10.5319L14.8969 11.9459C15.2612 12.3231 15.4628 12.8283 15.4582 13.3527C15.4537 13.8771 15.2433 14.3787 14.8725 14.7495C14.5017 15.1204 14.0001 15.3307 13.4757 15.3353C12.9513 15.3398 12.4461 15.1382 12.0689 14.7739L10.6549 13.3599C10.2799 12.9848 10.0693 12.4762 10.0693 11.9459C10.0693 11.4156 10.2799 10.907 10.6549 10.5319ZM24.7969 16.6739C22.6751 16.6739 20.6403 17.5168 19.14 19.017C17.6397 20.5173 16.7969 22.5522 16.7969 24.6739C16.7969 26.7956 17.6397 28.8305 19.14 30.3308C20.6403 31.8311 22.6751 32.6739 24.7969 32.6739C26.9186 32.6739 28.9534 31.8311 30.4537 30.3308C31.954 28.8305 32.7969 26.7956 32.7969 24.6739C32.7969 22.5522 31.954 20.5173 30.4537 19.017C28.9534 17.5168 26.9186 16.6739 24.7969 16.6739ZM12.7969 24.6739C12.7969 21.4913 14.0612 18.4391 16.3116 16.1886C18.562 13.9382 21.6143 12.6739 24.7969 12.6739C27.9795 12.6739 31.0317 13.9382 33.2822 16.1886C35.5326 18.4391 36.7969 21.4913 36.7969 24.6739C36.7969 27.8565 35.5326 30.9088 33.2822 33.1592C31.0317 35.4096 27.9795 36.6739 24.7969 36.6739C21.6143 36.6739 18.562 35.4096 16.3116 33.1592C14.0612 30.9088 12.7969 27.8565 12.7969 24.6739ZM4.79688 24.6739C4.79688 24.1435 5.00759 23.6348 5.38266 23.2597C5.75773 22.8846 6.26644 22.6739 6.79688 22.6739H8.79688C9.32731 22.6739 9.83602 22.8846 10.2111 23.2597C10.5862 23.6348 10.7969 24.1435 10.7969 24.6739C10.7969 25.2043 10.5862 25.713 10.2111 26.0881C9.83602 26.4632 9.32731 26.6739 8.79688 26.6739H6.79688C6.26644 26.6739 5.75773 26.4632 5.38266 26.0881C5.00759 25.713 4.79688 25.2043 4.79688 24.6739ZM38.7969 24.6739C38.7969 24.1435 39.0076 23.6348 39.3827 23.2597C39.7577 22.8846 40.2664 22.6739 40.7969 22.6739H42.7969C43.3273 22.6739 43.836 22.8846 44.2111 23.2597C44.5862 23.6348 44.7969 24.1435 44.7969 24.6739C44.7969 25.2043 44.5862 25.713 44.2111 26.0881C43.836 26.4632 43.3273 26.6739 42.7969 26.6739H40.7969C40.2664 26.6739 39.7577 26.4632 39.3827 26.0881C39.0076 25.713 38.7969 25.2043 38.7969 24.6739ZM12.0689 34.5739C12.4461 34.2096 12.9513 34.008 13.4757 34.0126C14.0001 34.0171 14.5017 34.2275 14.8725 34.5983C15.2433 34.9691 15.4537 35.4707 15.4582 35.9951C15.4628 36.5195 15.2612 37.0247 14.8969 37.4019L13.4829 38.8159C13.1057 39.1802 12.6005 39.3818 12.0761 39.3773C11.5517 39.3727 11.0501 39.1624 10.6792 38.7915C10.3084 38.4207 10.0981 37.9191 10.0935 37.3947C10.089 36.8703 10.2906 36.3651 10.6549 35.9879L12.0689 34.5739ZM34.6969 37.4019C34.3326 37.0247 34.131 36.5195 34.1355 35.9951C34.1401 35.4707 34.3504 34.9691 34.7212 34.5983C35.0921 34.2275 35.5937 34.0171 36.1181 34.0126C36.6425 34.008 37.1477 34.2096 37.5249 34.5739L38.9389 35.9879C39.3032 36.3651 39.5048 36.8703 39.5002 37.3947C39.4957 37.9191 39.2853 38.4207 38.9145 38.7915C38.5437 39.1624 38.0421 39.3727 37.5177 39.3773C36.9933 39.3818 36.4881 39.1802 36.1109 38.8159L34.6969 37.4019ZM24.7969 38.6739C25.3273 38.6739 25.836 38.8846 26.2111 39.2597C26.5862 39.6348 26.7969 40.1435 26.7969 40.6739V42.6739C26.7969 43.2043 26.5862 43.713 26.2111 44.0881C25.836 44.4632 25.3273 44.6739 24.7969 44.6739C24.2664 44.6739 23.7577 44.4632 23.3827 44.0881C23.0076 43.713 22.7969 43.2043 22.7969 42.6739V40.6739C22.7969 40.1435 23.0076 39.6348 23.3827 39.2597C23.7577 38.8846 24.2664 38.6739 24.7969 38.6739Z" fill="#0D0D0D"/>
</svg>
