<svg width="439" height="100" viewBox="0 0 439 100" fill="none" xmlns="http://www.w3.org/2000/svg">
<path d="M14.9896 23.0166L91.4368 23.0166V99.4638H14.9896L30.2791 61.2402L14.9896 23.0166Z" fill="url(#paint0_linear_243_386)"/>
<path d="M61.4575 76.9792L91.4368 99.4637V76.9792H61.4575Z" fill="black" fill-opacity="0.4"/>
<path d="M423.861 23.0166L347.414 23.0166V99.4638H423.861L408.572 61.2402L423.861 23.0166Z" fill="url(#paint1_linear_243_386)"/>
<path d="M377.393 76.9792L347.414 99.4637V76.9792H377.393Z" fill="black" fill-opacity="0.4"/>
<rect width="315.936" height="76.9793" transform="translate(61.4575)" fill="url(#paint2_linear_243_386)"/>
<path d="M120 55.9896H108.144V54.1656C108.656 53.8456 109.2 53.5736 109.776 53.3496C110.384 53.0936 110.976 52.9016 111.552 52.7736L123.936 21.8136H127.488L139.536 52.7736C140.176 52.9016 140.816 53.0936 141.456 53.3496C142.096 53.5736 142.656 53.8456 143.136 54.1656V55.9896H128.112V54.1656C128.72 53.8776 129.376 53.6056 130.08 53.3496C130.784 53.0936 131.456 52.9016 132.096 52.7736L129.312 45.1416H118.656L115.824 52.7736C117.296 52.9656 118.688 53.4296 120 54.1656V55.9896ZM119.808 42.0216H128.304L125.184 32.8536L124.272 28.7256H124.176L123.12 32.9496L119.808 42.0216ZM171.625 55.9896H159.625V54.1176C159.945 53.9256 160.297 53.7336 160.681 53.5416C161.097 53.3176 161.545 53.1256 162.025 52.9656V43.4136C162.025 41.9416 161.977 40.6936 161.881 39.6696C161.817 38.6456 161.657 37.8136 161.401 37.1736C161.145 36.5016 160.793 36.0216 160.345 35.7336C159.897 35.4136 159.321 35.2536 158.617 35.2536C157.593 35.2536 156.697 35.6536 155.929 36.4536C155.193 37.2216 154.649 38.2456 154.297 39.5256V52.9656C155.161 53.2216 155.961 53.6056 156.697 54.1176V55.9896L144.217 55.9896V54.1176C144.665 53.8936 145.161 53.6856 145.705 53.4936C146.249 53.3016 146.809 53.1256 147.385 52.9656V35.3976L144.217 35.0136V33.1416C144.729 32.9176 145.353 32.7096 146.089 32.5176C146.857 32.3256 147.641 32.1656 148.441 32.0376C149.241 31.8776 150.009 31.7496 150.745 31.6536C151.513 31.5576 152.153 31.4776 152.665 31.4136H154.297V36.8376H154.345C154.857 35.3336 155.753 34.0536 157.033 32.9976C158.345 31.9416 159.913 31.4136 161.737 31.4136C162.505 31.4136 163.257 31.4936 163.993 31.6536C164.729 31.8136 165.401 32.1176 166.009 32.5656C166.649 32.9816 167.193 33.5736 167.641 34.3416C168.089 35.1096 168.409 36.1016 168.601 37.3176C169.177 35.5576 170.137 34.1336 171.481 33.0456C172.825 31.9576 174.457 31.4136 176.377 31.4136C177.561 31.4136 178.601 31.5736 179.497 31.8936C180.425 32.1816 181.193 32.7096 181.801 33.4776C182.441 34.2456 182.921 35.2856 183.241 36.5976C183.561 37.9096 183.721 39.5736 183.721 41.5896V52.9656C184.809 53.1576 185.865 53.5416 186.889 54.1176V55.9896H174.409V54.1176C175.145 53.6376 175.945 53.2536 176.809 52.9656V42.5496C176.809 40.0536 176.569 38.2136 176.089 37.0296C175.641 35.8456 174.649 35.2536 173.113 35.2536C171.961 35.2536 171.049 35.6856 170.377 36.5496C169.737 37.4136 169.257 38.5656 168.937 40.0056V52.9656C169.481 53.1256 169.961 53.3016 170.377 53.4936C170.825 53.6856 171.241 53.8936 171.625 54.1176V55.9896ZM210.785 51.9576C210.529 52.5016 210.113 53.0616 209.537 53.6376C208.993 54.1816 208.305 54.6776 207.473 55.1256C206.673 55.5416 205.729 55.8776 204.641 56.1336C203.585 56.4216 202.433 56.5656 201.185 56.5656C199.201 56.5656 197.441 56.2776 195.905 55.7016C194.369 55.0936 193.089 54.2456 192.065 53.1576C191.041 52.0376 190.257 50.7096 189.713 49.1736C189.201 47.6376 188.945 45.9096 188.945 43.9896C188.945 39.8936 190.017 36.7736 192.161 34.6296C194.305 32.4856 197.281 31.4136 201.089 31.4136C202.721 31.4136 204.241 31.6376 205.649 32.0856C207.089 32.5336 208.273 33.2696 209.201 34.2936C210.161 35.3176 210.817 36.6616 211.169 38.3256C211.553 39.9896 211.537 42.0216 211.121 44.4216H196.385C196.417 46.9496 197.057 48.9656 198.305 50.4696C199.585 51.9736 201.457 52.7256 203.921 52.7256C204.977 52.7256 206.065 52.5656 207.185 52.2456C208.337 51.9256 209.233 51.5096 209.873 50.9976L210.785 51.9576ZM200.897 34.1496C200.257 34.1496 199.681 34.2616 199.169 34.4856C198.689 34.7096 198.257 35.1256 197.873 35.7336C197.521 36.3096 197.233 37.1096 197.009 38.1336C196.785 39.1256 196.625 40.3896 196.529 41.9256H204.257C204.481 39.4296 204.337 37.5096 203.825 36.1656C203.313 34.8216 202.337 34.1496 200.897 34.1496ZM227.158 37.5096C226.774 37.7016 226.326 38.0216 225.814 38.4696C225.302 38.9176 224.838 39.6536 224.422 40.6776V52.9656C225.062 53.0296 225.702 53.1576 226.342 53.3496C226.982 53.5096 227.622 53.7656 228.262 54.1176V55.9896H214.342V54.1176C214.918 53.7976 215.462 53.5576 215.974 53.3976C216.486 53.2376 216.998 53.0936 217.51 52.9656V35.3976L214.342 35.0136V33.1416C214.854 32.9176 215.478 32.7096 216.214 32.5176C216.982 32.3256 217.766 32.1656 218.566 32.0376C219.366 31.8776 220.134 31.7496 220.87 31.6536C221.638 31.5576 222.278 31.4776 222.79 31.4136H224.422V37.7976L224.614 37.7976C224.87 37.0936 225.238 36.3576 225.718 35.5896C226.23 34.8216 226.822 34.1176 227.494 33.4776C228.166 32.8376 228.902 32.3256 229.702 31.9416C230.502 31.5576 231.334 31.3816 232.198 31.4136C232.55 31.8616 232.854 32.5016 233.11 33.3336C233.366 34.1336 233.574 34.9016 233.734 35.6376V37.5096H227.158ZM248.646 55.9896L235.398 55.9896V54.1176C235.878 53.8616 236.374 53.6536 236.886 53.4936C237.398 53.3016 237.958 53.1256 238.566 52.9656V35.3976L235.398 35.0136V33.1416C235.878 32.9496 236.47 32.7576 237.174 32.5656C237.91 32.3736 238.678 32.2136 239.478 32.0856C240.278 31.9256 241.062 31.7976 241.83 31.7016C242.598 31.5736 243.27 31.4776 243.846 31.4136H245.478V52.9656C246.118 53.1256 246.694 53.3016 247.206 53.4936C247.718 53.6536 248.198 53.8616 248.646 54.1176V55.9896ZM237.75 24.1176C237.75 22.9976 238.134 22.1176 238.902 21.4776C239.67 20.8376 240.662 20.5176 241.878 20.5176C243.094 20.5176 244.086 20.8376 244.854 21.4776C245.622 22.1176 246.006 22.9976 246.006 24.1176C246.006 25.2056 245.622 26.0696 244.854 26.7096C244.086 27.3496 243.094 27.6696 241.878 27.6696C240.662 27.6696 239.67 27.3496 238.902 26.7096C238.134 26.0696 237.75 25.2056 237.75 24.1176ZM271.735 52.1016C271.511 52.7416 271.143 53.3336 270.631 53.8776C270.119 54.3896 269.495 54.8536 268.759 55.2696C268.055 55.6856 267.239 56.0056 266.311 56.2296C265.415 56.4536 264.471 56.5656 263.479 56.5656C261.367 56.5656 259.543 56.2776 258.007 55.7016C256.503 55.0936 255.255 54.2456 254.263 53.1576C253.271 52.0376 252.535 50.7096 252.055 49.1736C251.575 47.6056 251.335 45.8776 251.335 43.9896C251.335 39.9256 252.439 36.8216 254.647 34.6776C256.887 32.5016 260.055 31.4136 264.151 31.4136C265.719 31.4136 267.159 31.5896 268.471 31.9416C269.783 32.2616 270.871 32.6456 271.735 33.0936C271.671 33.6376 271.575 34.2456 271.447 34.9176C271.351 35.5576 271.223 36.2136 271.063 36.8856C270.935 37.5256 270.775 38.1656 270.583 38.8056C270.391 39.4136 270.199 39.9256 270.007 40.3416H267.655L265.639 34.6296C265.415 34.4696 265.175 34.3576 264.919 34.2936C264.663 34.1976 264.279 34.1496 263.767 34.1496C262.935 34.1496 262.215 34.3096 261.607 34.6296C260.999 34.9176 260.471 35.4296 260.023 36.1656C259.607 36.9016 259.287 37.8776 259.063 39.0936C258.871 40.3096 258.775 41.8136 258.775 43.6056C258.775 44.9176 258.919 46.1336 259.207 47.2536C259.495 48.3416 259.927 49.3016 260.503 50.1336C261.111 50.9336 261.863 51.5736 262.759 52.0536C263.655 52.5016 264.711 52.7256 265.927 52.7256C267.047 52.7256 268.023 52.5656 268.855 52.2456C269.687 51.9256 270.391 51.5416 270.967 51.0936L271.735 52.1016ZM295.657 49.0296C295.657 49.7336 295.657 50.3416 295.657 50.8536C295.689 51.3656 295.737 51.9096 295.801 52.4856L299.113 52.9656V54.6456C298.729 54.8376 298.201 55.0296 297.529 55.2216C296.889 55.4136 296.201 55.6056 295.465 55.7976C294.761 55.9576 294.057 56.0856 293.353 56.1816C292.649 56.3096 292.025 56.4056 291.481 56.4696H289.849C289.529 55.7336 289.337 54.9976 289.273 54.2616C289.209 53.5256 289.161 52.6296 289.129 51.5736H288.889C288.729 52.2136 288.457 52.8376 288.073 53.4456C287.689 54.0216 287.193 54.5496 286.585 55.0296C286.009 55.4776 285.321 55.8456 284.521 56.1336C283.721 56.4216 282.825 56.5656 281.833 56.5656C280.777 56.5656 279.801 56.4056 278.905 56.0856C278.009 55.7656 277.225 55.3176 276.553 54.7416C275.881 54.1656 275.353 53.4776 274.969 52.6776C274.585 51.8456 274.393 50.9176 274.393 49.8936C274.393 48.4536 274.665 47.2696 275.209 46.3416C275.753 45.4136 276.601 44.6616 277.753 44.0856C278.937 43.4776 280.441 43.0296 282.265 42.7416C284.121 42.4536 286.361 42.2456 288.985 42.1176C289.241 39.3656 289.129 37.3496 288.649 36.0696C288.169 34.7896 287.129 34.1496 285.529 34.1496C284.537 34.1496 283.625 34.3096 282.793 34.6296L280.537 40.3896H278.425C278.169 40.0056 277.913 39.5736 277.657 39.0936C277.433 38.5816 277.209 38.0536 276.985 37.5096C276.793 36.9336 276.617 36.3576 276.457 35.7816C276.329 35.2056 276.233 34.6456 276.169 34.1016C277.385 33.2696 278.953 32.6136 280.873 32.1336C282.793 31.6536 284.825 31.4136 286.969 31.4136C288.793 31.4136 290.281 31.6216 291.433 32.0376C292.585 32.4216 293.481 32.9656 294.121 33.6696C294.793 34.3416 295.257 35.1416 295.513 36.0696C295.769 36.9976 295.897 37.9896 295.897 39.0456C295.897 40.9656 295.849 42.7096 295.753 44.2776C295.689 45.8136 295.657 47.3976 295.657 49.0296ZM284.857 52.7256C285.529 52.7256 286.105 52.5976 286.585 52.3416C287.065 52.0856 287.465 51.7816 287.785 51.4296C288.137 51.0776 288.393 50.6936 288.553 50.2776C288.745 49.8616 288.889 49.4936 288.985 49.1736V44.3736C287.481 44.4056 286.249 44.5016 285.289 44.6616C284.329 44.8216 283.577 45.0936 283.033 45.4776C282.489 45.8296 282.105 46.2936 281.881 46.8696C281.689 47.4136 281.593 48.0856 281.593 48.8856C281.593 50.1016 281.881 51.0456 282.457 51.7176C283.033 52.3896 283.833 52.7256 284.857 52.7256ZM330.152 55.9896H317.432V54.1176C317.848 53.8936 318.248 53.7016 318.632 53.5416C319.048 53.3496 319.528 53.1576 320.072 52.9656V41.6856C320.072 39.6696 319.784 38.1016 319.208 36.9816C318.632 35.8296 317.608 35.2536 316.136 35.2536C314.92 35.2536 313.864 35.6536 312.968 36.4536C312.104 37.2216 311.448 38.2776 311 39.6216V52.9656C311.512 53.0936 311.96 53.2536 312.344 53.4456C312.76 53.6056 313.192 53.8296 313.64 54.1176V55.9896H300.92V54.1176C301.72 53.7016 302.776 53.3176 304.088 52.9656V35.3976L300.92 35.0136V33.1416C301.336 32.9496 301.88 32.7736 302.552 32.6136C303.224 32.4216 303.944 32.2456 304.712 32.0856C305.512 31.9256 306.312 31.7976 307.112 31.7016C307.944 31.5736 308.696 31.4776 309.368 31.4136H311V36.3576H311.048C311.72 35.0136 312.728 33.8616 314.072 32.9016C315.416 31.9096 317.048 31.4136 318.968 31.4136C320.216 31.4136 321.336 31.5736 322.328 31.8936C323.32 32.1816 324.152 32.7096 324.824 33.4776C325.528 34.2456 326.056 35.2856 326.408 36.5976C326.792 37.8776 326.984 39.5096 326.984 41.4936V52.9656C328.264 53.1896 329.32 53.5736 330.152 54.1176V55.9896Z" fill="white"/>
<defs>
<linearGradient id="paint0_linear_243_386" x1="53.2132" y1="23.0166" x2="53.2132" y2="99.4638" gradientUnits="userSpaceOnUse">
<stop/>
<stop offset="1" stop-color="#707070"/>
</linearGradient>
<linearGradient id="paint1_linear_243_386" x1="385.638" y1="23.0166" x2="385.638" y2="99.4638" gradientUnits="userSpaceOnUse">
<stop/>
<stop offset="1" stop-color="#707070"/>
</linearGradient>
<linearGradient id="paint2_linear_243_386" x1="157.968" y1="0" x2="157.968" y2="76.9793" gradientUnits="userSpaceOnUse">
<stop stop-color="#303030"/>
<stop offset="0.0001" stop-color="#242424"/>
<stop offset="1" stop-color="#212121"/>
</linearGradient>
</defs>
</svg>
