<svg width="319" height="100" viewBox="0 0 319 100" fill="none" xmlns="http://www.w3.org/2000/svg">
<path d="M14.9896 23.0166L91.4368 23.0166V99.4638H14.9896L30.2791 61.2402L14.9896 23.0166Z" fill="url(#paint0_linear_243_387)"/>
<path d="M61.4575 76.9792L91.4368 99.4637V76.9792H61.4575Z" fill="black" fill-opacity="0.4"/>
<path d="M303.861 23.0166L227.414 23.0166V99.4638H303.861L288.572 61.2402L303.861 23.0166Z" fill="url(#paint1_linear_243_387)"/>
<path d="M257.393 76.9792L227.414 99.4637V76.9792H257.393Z" fill="black" fill-opacity="0.4"/>
<rect width="195.936" height="76.9793" transform="translate(61.4575)" fill="url(#paint2_linear_243_387)"/>
<path d="M138.696 53.8776C138.056 54.1976 137.272 54.5176 136.344 54.8376C135.416 55.1576 134.44 55.4456 133.416 55.7016C132.392 55.9576 131.368 56.1656 130.344 56.3256C129.32 56.4856 128.408 56.5656 127.608 56.5656C124.856 56.5656 122.392 56.2136 120.216 55.5096C118.072 54.7736 116.232 53.6856 114.696 52.2456C113.192 50.7736 112.04 48.9496 111.24 46.7736C110.44 44.5976 110.04 42.0696 110.04 39.1896C110.04 36.0536 110.52 33.3976 111.48 31.2216C112.472 29.0136 113.768 27.2216 115.368 25.8456C117 24.4376 118.84 23.4136 120.888 22.7736C122.936 22.1336 125.032 21.8136 127.176 21.8136C129.288 21.8136 131.272 21.9576 133.128 22.2456C134.984 22.5336 136.456 22.9496 137.544 23.4936C137.544 23.9736 137.512 24.5976 137.448 25.3656C137.416 26.1016 137.352 26.9016 137.256 27.7656C137.16 28.6296 137.032 29.4936 136.872 30.3576C136.744 31.2216 136.584 32.0056 136.392 32.7096H134.424L131.736 25.4136C131.384 25.2536 130.856 25.1416 130.152 25.0776C129.448 24.9816 128.744 24.9336 128.04 24.9336C126.728 24.9336 125.464 25.1896 124.248 25.7016C123.032 26.2136 121.96 27.0456 121.032 28.1976C120.104 29.3176 119.368 30.7896 118.824 32.6136C118.28 34.4056 118.008 36.5976 118.008 39.1896C118.008 41.3016 118.248 43.2376 118.728 44.9976C119.24 46.7256 119.944 48.2136 120.84 49.4616C121.736 50.7096 122.808 51.6856 124.056 52.3896C125.304 53.0936 126.68 53.4456 128.184 53.4456C128.664 53.4456 129.16 53.4136 129.672 53.3496C130.184 53.2536 130.664 53.1416 131.112 53.0136C131.56 52.8856 131.944 52.7416 132.264 52.5816C132.616 52.4216 132.856 52.2776 132.984 52.1496V43.1256C132.152 43.0616 131.368 42.9016 130.632 42.6456C129.896 42.3896 129.208 42.0856 128.568 41.7336V39.9096H141.672V41.7336C141.384 42.0216 141 42.2936 140.52 42.5496C140.04 42.7736 139.432 42.9656 138.696 43.1256V53.8776ZM156.119 37.5096C155.735 37.7016 155.287 38.0216 154.775 38.4696C154.263 38.9176 153.799 39.6536 153.383 40.6776V52.9656C154.023 53.0296 154.663 53.1576 155.303 53.3496C155.943 53.5096 156.583 53.7656 157.223 54.1176V55.9896L143.303 55.9896V54.1176C143.879 53.7976 144.423 53.5576 144.935 53.3976C145.447 53.2376 145.959 53.0936 146.471 52.9656V35.3976L143.303 35.0136V33.1416C143.815 32.9176 144.439 32.7096 145.175 32.5176C145.943 32.3256 146.727 32.1656 147.527 32.0376C148.327 31.8776 149.095 31.7496 149.831 31.6536C150.599 31.5576 151.239 31.4776 151.751 31.4136H153.383V37.7976H153.575C153.831 37.0936 154.199 36.3576 154.679 35.5896C155.191 34.8216 155.783 34.1176 156.455 33.4776C157.127 32.8376 157.863 32.3256 158.663 31.9416C159.463 31.5576 160.295 31.3816 161.159 31.4136C161.511 31.8616 161.815 32.5016 162.071 33.3336C162.327 34.1336 162.535 34.9016 162.695 35.6376V37.5096H156.119ZM177.607 55.9896H164.359V54.1176C164.839 53.8616 165.335 53.6536 165.847 53.4936C166.359 53.3016 166.919 53.1256 167.527 52.9656V35.3976L164.359 35.0136V33.1416C164.839 32.9496 165.431 32.7576 166.135 32.5656C166.871 32.3736 167.639 32.2136 168.439 32.0856C169.239 31.9256 170.023 31.7976 170.791 31.7016C171.559 31.5736 172.231 31.4776 172.807 31.4136H174.439V52.9656C175.079 53.1256 175.655 53.3016 176.167 53.4936C176.679 53.6536 177.159 53.8616 177.607 54.1176V55.9896ZM166.711 24.1176C166.711 22.9976 167.095 22.1176 167.863 21.4776C168.631 20.8376 169.623 20.5176 170.839 20.5176C172.055 20.5176 173.047 20.8376 173.815 21.4776C174.583 22.1176 174.967 22.9976 174.967 24.1176C174.967 25.2056 174.583 26.0696 173.815 26.7096C173.047 27.3496 172.055 27.6696 170.839 27.6696C169.623 27.6696 168.631 27.3496 167.863 26.7096C167.095 26.0696 166.711 25.2056 166.711 24.1176ZM193.544 55.9896H180.296V54.1176C181.352 53.6056 182.408 53.2216 183.464 52.9656V23.8776L179.816 23.4936V21.6216C180.232 21.4296 180.808 21.2376 181.544 21.0456C182.28 20.8536 183.064 20.6936 183.896 20.5656C184.76 20.4056 185.608 20.2776 186.44 20.1816C187.304 20.0536 188.072 19.9576 188.744 19.8936H190.376V52.9656C191.432 53.2216 192.488 53.6056 193.544 54.1176V55.9896ZM209.482 55.9896H196.234V54.1176C197.29 53.6056 198.346 53.2216 199.402 52.9656V23.8776L195.754 23.4936V21.6216C196.17 21.4296 196.746 21.2376 197.482 21.0456C198.218 20.8536 199.002 20.6936 199.834 20.5656C200.698 20.4056 201.546 20.2776 202.378 20.1816C203.242 20.0536 204.01 19.9576 204.682 19.8936H206.314V52.9656C207.37 53.2216 208.426 53.6056 209.482 54.1176V55.9896Z" fill="white"/>
<defs>
<linearGradient id="paint0_linear_243_387" x1="53.2132" y1="23.0166" x2="53.2132" y2="99.4638" gradientUnits="userSpaceOnUse">
<stop/>
<stop offset="1" stop-color="#707070"/>
</linearGradient>
<linearGradient id="paint1_linear_243_387" x1="265.638" y1="23.0166" x2="265.638" y2="99.4638" gradientUnits="userSpaceOnUse">
<stop/>
<stop offset="1" stop-color="#707070"/>
</linearGradient>
<linearGradient id="paint2_linear_243_387" x1="97.9679" y1="0" x2="97.9679" y2="76.9793" gradientUnits="userSpaceOnUse">
<stop stop-color="#303030"/>
<stop offset="0.0001" stop-color="#242424"/>
<stop offset="1" stop-color="#212121"/>
</linearGradient>
</defs>
</svg>
