<svg width="489" height="100" viewBox="0 0 489 100" fill="none" xmlns="http://www.w3.org/2000/svg">
<path d="M14.9897 23.0165L91.4369 23.0165V99.4637H14.9897L30.2791 61.2401L14.9897 23.0165Z" fill="url(#paint0_linear_65_38)"/>
<path d="M61.4576 76.9792L91.4369 99.4637V76.9792H61.4576Z" fill="black" fill-opacity="0.4"/>
<path d="M473.861 23.0165L397.414 23.0165V99.4637H473.861L458.572 61.2401L473.861 23.0165Z" fill="url(#paint1_linear_65_38)"/>
<path d="M427.393 76.9792L397.414 99.4637V76.9792H427.393Z" fill="black" fill-opacity="0.4"/>
<rect width="365.936" height="76.9793" transform="translate(61.4576)" fill="url(#paint2_linear_65_38)"/>
<path d="M151.581 55.9897H137.229V54.1657C137.869 53.8457 138.493 53.5737 139.101 53.3497C139.709 53.1257 140.365 52.9337 141.069 52.7737V32.7097L141.309 27.0937H140.925L139.341 32.2297L130.077 55.9897H127.869L118.653 32.4217L116.925 26.8057H116.493L116.541 32.9017V52.5817C117.149 52.7097 117.821 52.9177 118.557 53.2057C119.293 53.4937 119.981 53.8137 120.621 54.1657V55.9897H108.909V54.1657C109.421 53.9097 110.045 53.6057 110.781 53.2537C111.549 52.9017 112.269 52.6617 112.941 52.5337V25.6057C112.301 25.4777 111.613 25.3017 110.877 25.0777C110.173 24.8537 109.549 24.5657 109.005 24.2137V22.3897H122.013L129.357 41.9257L130.749 46.5337H130.797L132.237 41.8297L139.725 22.3897H151.629V24.2137C151.085 24.5337 150.493 24.8217 149.853 25.0777C149.245 25.3017 148.621 25.4777 147.981 25.6057V52.8217C148.653 52.9497 149.293 53.1417 149.901 53.3977C150.541 53.6537 151.101 53.9097 151.581 54.1657V55.9897ZM175.902 51.9577C175.646 52.5017 175.23 53.0617 174.654 53.6377C174.11 54.1817 173.422 54.6777 172.59 55.1257C171.79 55.5417 170.846 55.8777 169.758 56.1337C168.702 56.4217 167.55 56.5657 166.302 56.5657C164.318 56.5657 162.558 56.2777 161.022 55.7017C159.486 55.0937 158.206 54.2457 157.182 53.1577C156.158 52.0377 155.374 50.7097 154.83 49.1737C154.318 47.6377 154.062 45.9097 154.062 43.9897C154.062 39.8937 155.134 36.7737 157.278 34.6297C159.422 32.4857 162.398 31.4137 166.206 31.4137C167.838 31.4137 169.358 31.6377 170.766 32.0857C172.206 32.5337 173.39 33.2697 174.318 34.2937C175.278 35.3177 175.934 36.6617 176.286 38.3257C176.67 39.9897 176.654 42.0217 176.238 44.4217H161.502C161.534 46.9497 162.174 48.9657 163.422 50.4697C164.702 51.9737 166.574 52.7257 169.038 52.7257C170.094 52.7257 171.182 52.5657 172.302 52.2457C173.454 51.9257 174.35 51.5097 174.99 50.9977L175.902 51.9577ZM166.014 34.1497C165.374 34.1497 164.798 34.2617 164.286 34.4857C163.806 34.7097 163.374 35.1257 162.99 35.7337C162.638 36.3097 162.35 37.1097 162.126 38.1337C161.902 39.1257 161.742 40.3897 161.646 41.9257H169.374C169.598 39.4297 169.454 37.5097 168.942 36.1657C168.43 34.8217 167.454 34.1497 166.014 34.1497ZM208.691 55.9897H195.971V54.1177C196.387 53.8937 196.787 53.7017 197.171 53.5417C197.587 53.3497 198.067 53.1577 198.611 52.9657V41.6857C198.611 39.6697 198.323 38.1017 197.747 36.9817C197.171 35.8297 196.147 35.2537 194.675 35.2537C193.459 35.2537 192.403 35.6537 191.507 36.4537C190.643 37.2217 189.987 38.2777 189.539 39.6217V52.9657C190.051 53.0937 190.499 53.2537 190.883 53.4457C191.299 53.6057 191.731 53.8297 192.179 54.1177V55.9897H179.459V54.1177C180.259 53.7017 181.315 53.3177 182.627 52.9657V35.3977L179.459 35.0137V33.1417C179.875 32.9497 180.419 32.7737 181.091 32.6137C181.763 32.4217 182.483 32.2457 183.251 32.0857C184.051 31.9257 184.851 31.7977 185.651 31.7017C186.483 31.5737 187.235 31.4777 187.907 31.4137H189.539V36.3577H189.587C190.259 35.0137 191.267 33.8617 192.611 32.9017C193.955 31.9097 195.587 31.4137 197.507 31.4137C198.755 31.4137 199.875 31.5737 200.867 31.8937C201.859 32.1817 202.691 32.7097 203.363 33.4777C204.067 34.2457 204.595 35.2857 204.947 36.5977C205.331 37.8777 205.523 39.5097 205.523 41.4937V52.9657C206.803 53.1897 207.859 53.5737 208.691 54.1177V55.9897ZM212.654 46.4857C212.654 44.4697 212.702 42.5977 212.798 40.8697C212.894 39.1417 212.942 37.3177 212.942 35.3977L209.774 35.0137V33.1417C210.286 32.9497 210.91 32.7577 211.646 32.5657C212.414 32.3737 213.198 32.2137 213.998 32.0857C214.798 31.9257 215.566 31.7977 216.302 31.7017C217.07 31.5737 217.71 31.4777 218.222 31.4137H219.854C219.854 33.8137 219.806 36.1817 219.71 38.5177C219.614 40.8217 219.566 43.0937 219.566 45.3337C219.566 47.9577 219.822 49.8457 220.334 50.9977C220.878 52.1497 221.87 52.7257 223.31 52.7257C224.302 52.7257 225.214 52.3577 226.046 51.6217C226.91 50.8537 227.614 49.6377 228.158 47.9737V35.3977L225.038 35.0137V33.1417C225.518 32.9497 226.11 32.7577 226.814 32.5657C227.55 32.3737 228.302 32.2137 229.07 32.0857C229.87 31.9257 230.654 31.7977 231.422 31.7017C232.19 31.5737 232.862 31.4777 233.438 31.4137H235.07V52.5817L238.238 52.9657V54.6457C237.79 54.8377 237.23 55.0297 236.558 55.2217C235.886 55.4137 235.182 55.6057 234.446 55.7977C233.71 55.9577 232.974 56.0857 232.238 56.1817C231.534 56.3097 230.894 56.4057 230.318 56.4697H228.686L228.35 50.7577H228.158C227.998 51.4297 227.71 52.1177 227.294 52.8217C226.878 53.4937 226.334 54.1177 225.662 54.6937C225.022 55.2377 224.254 55.6857 223.358 56.0377C222.462 56.3897 221.47 56.5657 220.382 56.5657C219.166 56.5657 218.078 56.4057 217.118 56.0857C216.19 55.7977 215.39 55.2697 214.718 54.5017C214.046 53.7337 213.534 52.7097 213.182 51.4297C212.83 50.1177 212.654 48.4697 212.654 46.4857ZM268.459 55.9897H253.483V54.1657C254.763 53.4617 256.059 52.9977 257.371 52.7737V25.6057C256.731 25.5097 256.059 25.3337 255.355 25.0777C254.651 24.8217 254.027 24.5337 253.483 24.2137V22.3897L268.459 22.3897V24.2137C267.883 24.5657 267.243 24.8697 266.539 25.1257C265.867 25.3497 265.211 25.5097 264.571 25.6057V52.7737C265.211 52.9017 265.867 53.0777 266.539 53.3017C267.243 53.5257 267.883 53.8137 268.459 54.1657V55.9897ZM270.286 33.1417C271.502 32.3737 272.782 31.8297 274.126 31.5097V27.6217C274.318 27.4297 274.638 27.2537 275.086 27.0937C275.566 26.9017 276.062 26.7417 276.574 26.6137C277.118 26.4537 277.646 26.3097 278.158 26.1817C278.67 26.0537 279.086 25.9577 279.406 25.8937H281.038V31.9897H287.374V35.0137H281.038V47.4457C281.038 49.4297 281.278 50.8057 281.758 51.5737C282.27 52.3417 283.102 52.7257 284.254 52.7257C284.83 52.7257 285.47 52.6937 286.174 52.6297C286.91 52.5337 287.582 52.3737 288.19 52.1497L288.526 53.7337C288.238 54.0217 287.806 54.3257 287.23 54.6457C286.686 54.9657 286.046 55.2697 285.31 55.5577C284.606 55.8457 283.822 56.0857 282.958 56.2777C282.126 56.4697 281.246 56.5657 280.318 56.5657C278.238 56.5657 276.686 56.0217 275.662 54.9337C274.638 53.8457 274.126 52.0857 274.126 49.6537V35.0137H270.286V33.1417ZM312.402 51.9577C312.146 52.5017 311.73 53.0617 311.154 53.6377C310.61 54.1817 309.922 54.6777 309.09 55.1257C308.29 55.5417 307.346 55.8777 306.258 56.1337C305.202 56.4217 304.05 56.5657 302.802 56.5657C300.818 56.5657 299.058 56.2777 297.522 55.7017C295.986 55.0937 294.706 54.2457 293.682 53.1577C292.658 52.0377 291.874 50.7097 291.33 49.1737C290.818 47.6377 290.562 45.9097 290.562 43.9897C290.562 39.8937 291.634 36.7737 293.778 34.6297C295.922 32.4857 298.898 31.4137 302.706 31.4137C304.338 31.4137 305.858 31.6377 307.266 32.0857C308.706 32.5337 309.89 33.2697 310.818 34.2937C311.778 35.3177 312.434 36.6617 312.786 38.3257C313.17 39.9897 313.154 42.0217 312.738 44.4217H298.002C298.034 46.9497 298.674 48.9657 299.922 50.4697C301.202 51.9737 303.074 52.7257 305.538 52.7257C306.594 52.7257 307.682 52.5657 308.802 52.2457C309.954 51.9257 310.85 51.5097 311.49 50.9977L312.402 51.9577ZM302.514 34.1497C301.874 34.1497 301.298 34.2617 300.786 34.4857C300.306 34.7097 299.874 35.1257 299.49 35.7337C299.138 36.3097 298.85 37.1097 298.626 38.1337C298.402 39.1257 298.242 40.3897 298.146 41.9257H305.874C306.098 39.4297 305.954 37.5097 305.442 36.1657C304.93 34.8217 303.954 34.1497 302.514 34.1497ZM343.367 55.9897L331.367 55.9897V54.1177C331.687 53.9257 332.039 53.7337 332.423 53.5417C332.839 53.3177 333.287 53.1257 333.767 52.9657V43.4137C333.767 41.9417 333.719 40.6937 333.623 39.6697C333.559 38.6457 333.399 37.8137 333.143 37.1737C332.887 36.5017 332.535 36.0217 332.087 35.7337C331.639 35.4137 331.063 35.2537 330.359 35.2537C329.335 35.2537 328.439 35.6537 327.671 36.4537C326.935 37.2217 326.391 38.2457 326.039 39.5257V52.9657C326.903 53.2217 327.703 53.6057 328.439 54.1177V55.9897H315.959V54.1177C316.407 53.8937 316.903 53.6857 317.447 53.4937C317.991 53.3017 318.551 53.1257 319.127 52.9657V35.3977L315.959 35.0137V33.1417C316.471 32.9177 317.095 32.7097 317.831 32.5177C318.599 32.3257 319.383 32.1657 320.183 32.0377C320.983 31.8777 321.751 31.7497 322.487 31.6537C323.255 31.5577 323.895 31.4777 324.407 31.4137H326.039V36.8377H326.087C326.599 35.3337 327.495 34.0537 328.775 32.9977C330.087 31.9417 331.655 31.4137 333.479 31.4137C334.247 31.4137 334.999 31.4937 335.735 31.6537C336.471 31.8137 337.143 32.1177 337.751 32.5657C338.391 32.9817 338.935 33.5737 339.383 34.3417C339.831 35.1097 340.151 36.1017 340.343 37.3177C340.919 35.5577 341.879 34.1337 343.223 33.0457C344.567 31.9577 346.199 31.4137 348.119 31.4137C349.303 31.4137 350.343 31.5737 351.239 31.8937C352.167 32.1817 352.935 32.7097 353.543 33.4777C354.183 34.2457 354.663 35.2857 354.983 36.5977C355.303 37.9097 355.463 39.5737 355.463 41.5897V52.9657C356.551 53.1577 357.607 53.5417 358.631 54.1177V55.9897H346.151V54.1177C346.887 53.6377 347.687 53.2537 348.551 52.9657V42.5497C348.551 40.0537 348.311 38.2137 347.831 37.0297C347.383 35.8457 346.391 35.2537 344.855 35.2537C343.703 35.2537 342.791 35.6857 342.119 36.5497C341.479 37.4137 340.999 38.5657 340.679 40.0057V52.9657C341.223 53.1257 341.703 53.3017 342.119 53.4937C342.567 53.6857 342.983 53.8937 343.367 54.1177V55.9897ZM373.023 50.7577C373.023 49.9257 372.719 49.2057 372.111 48.5977C371.535 47.9897 370.799 47.4297 369.903 46.9177C369.039 46.4057 368.079 45.8937 367.023 45.3817C365.999 44.8697 365.039 44.2777 364.143 43.6057C363.279 42.9017 362.543 42.0857 361.935 41.1577C361.359 40.2297 361.071 39.0937 361.071 37.7497C361.071 36.7897 361.295 35.9257 361.743 35.1577C362.191 34.3577 362.799 33.6857 363.567 33.1417C364.335 32.5977 365.247 32.1817 366.303 31.8937C367.391 31.5737 368.559 31.4137 369.807 31.4137C371.535 31.4137 373.135 31.5577 374.607 31.8457C376.111 32.1017 377.423 32.4697 378.543 32.9497C378.415 33.9737 378.159 35.0777 377.775 36.2617C377.391 37.4137 377.023 38.4697 376.671 39.4297H375.039L373.023 34.5337C372.639 34.3737 372.239 34.2777 371.823 34.2457C371.407 34.1817 370.943 34.1497 370.431 34.1497C369.471 34.1497 368.735 34.4377 368.223 35.0137C367.743 35.5577 367.503 36.1817 367.503 36.8857C367.503 37.6857 367.791 38.3897 368.367 38.9977C368.975 39.5737 369.711 40.1177 370.575 40.6297C371.471 41.1417 372.431 41.6537 373.455 42.1657C374.511 42.6777 375.471 43.2697 376.335 43.9417C377.231 44.5817 377.967 45.3497 378.543 46.2457C379.151 47.1417 379.455 48.2137 379.455 49.4617C379.455 51.6697 378.559 53.4137 376.767 54.6937C374.975 55.9417 372.575 56.5657 369.567 56.5657C368.031 56.5657 366.447 56.4057 364.815 56.0857C363.183 55.7657 361.775 55.3177 360.591 54.7417C360.655 53.5897 360.927 52.4217 361.407 51.2377C361.887 50.0537 362.399 48.9977 362.943 48.0697H364.575L366.927 53.3017C367.279 53.5577 367.663 53.7177 368.079 53.7817C368.527 53.8137 368.943 53.8297 369.327 53.8297C370.255 53.8297 371.103 53.5577 371.871 53.0137C372.639 52.4697 373.023 51.7177 373.023 50.7577Z" fill="white"/>
<defs>
<linearGradient id="paint0_linear_65_38" x1="53.2133" y1="23.0165" x2="53.2133" y2="99.4637" gradientUnits="userSpaceOnUse">
<stop/>
<stop offset="1" stop-color="#707070"/>
</linearGradient>
<linearGradient id="paint1_linear_65_38" x1="435.638" y1="23.0165" x2="435.638" y2="99.4637" gradientUnits="userSpaceOnUse">
<stop/>
<stop offset="1" stop-color="#707070"/>
</linearGradient>
<linearGradient id="paint2_linear_65_38" x1="182.968" y1="0" x2="182.968" y2="76.9793" gradientUnits="userSpaceOnUse">
<stop stop-color="#303030"/>
<stop offset="0.0001" stop-color="#242424"/>
<stop offset="1" stop-color="#212121"/>
</linearGradient>
</defs>
</svg>
