<svg width="335" height="100" viewBox="0 0 335 100" fill="none" xmlns="http://www.w3.org/2000/svg">
<path d="M14.9896 23.0166L91.4368 23.0166V99.4638H14.9896L30.2791 61.2402L14.9896 23.0166Z" fill="url(#paint0_linear_243_385)"/>
<path d="M61.4576 76.9792L91.4369 99.4637V76.9792H61.4576Z" fill="black" fill-opacity="0.4"/>
<path d="M319.861 23.0166L243.414 23.0166V99.4638H319.861L304.572 61.2402L319.861 23.0166Z" fill="url(#paint1_linear_243_385)"/>
<path d="M273.393 76.9792L243.414 99.4637V76.9792H273.393Z" fill="black" fill-opacity="0.4"/>
<rect width="211.936" height="76.9793" transform="translate(61.4576)" fill="url(#paint2_linear_243_385)"/>
<path d="M120.061 52.7736C120.797 52.9336 121.453 53.1416 122.029 53.3976C122.605 53.6536 123.165 53.9096 123.709 54.1656V55.9896H108.925V54.1656C109.629 53.7816 110.301 53.4936 110.941 53.3016C111.581 53.0776 112.221 52.9016 112.861 52.7736V25.6056C111.261 25.2536 109.949 24.7896 108.925 24.2136V22.3896H114.013C114.653 22.3896 115.373 22.3736 116.173 22.3416C117.005 22.3096 117.869 22.2776 118.765 22.2456C119.661 22.1816 120.573 22.1336 121.501 22.1016C122.429 22.0376 123.325 22.0056 124.189 22.0056C125.949 22.0056 127.565 22.2136 129.037 22.6296C130.541 23.0136 131.821 23.6056 132.877 24.4056C133.965 25.2056 134.797 26.2136 135.373 27.4296C135.981 28.6136 136.285 30.0056 136.285 31.6056C136.285 33.9096 135.725 35.7976 134.605 37.2696C133.485 38.7416 131.949 39.8456 129.997 40.5816C131.277 42.5976 132.637 44.6616 134.077 46.7736C135.517 48.8536 137.037 50.8696 138.637 52.8216L140.941 54.3576V55.9896H132.925L130.861 54.4056C129.389 52.6456 128.077 50.6136 126.925 48.3096C125.805 45.9736 124.813 43.6856 123.949 41.4456H120.061V52.7736ZM122.461 25.1256C121.469 25.1256 120.669 25.2216 120.061 25.4136V38.8056H122.893C124.525 38.8056 125.917 38.2296 127.069 37.0776C128.221 35.8936 128.797 34.1496 128.797 31.8456C128.797 30.6616 128.637 29.6536 128.317 28.8216C127.997 27.9576 127.549 27.2536 126.973 26.7096C126.397 26.1656 125.725 25.7656 124.957 25.5096C124.189 25.2536 123.357 25.1256 122.461 25.1256ZM163.589 51.9576C163.333 52.5016 162.917 53.0616 162.341 53.6376C161.797 54.1816 161.109 54.6776 160.277 55.1256C159.477 55.5416 158.533 55.8776 157.445 56.1336C156.389 56.4216 155.237 56.5656 153.989 56.5656C152.005 56.5656 150.245 56.2776 148.709 55.7016C147.173 55.0936 145.893 54.2456 144.869 53.1576C143.845 52.0376 143.061 50.7096 142.517 49.1736C142.005 47.6376 141.749 45.9096 141.749 43.9896C141.749 39.8936 142.821 36.7736 144.965 34.6296C147.109 32.4856 150.085 31.4136 153.893 31.4136C155.525 31.4136 157.045 31.6376 158.453 32.0856C159.893 32.5336 161.077 33.2696 162.005 34.2936C162.965 35.3176 163.621 36.6616 163.973 38.3256C164.357 39.9896 164.341 42.0216 163.925 44.4216H149.189C149.221 46.9496 149.861 48.9656 151.109 50.4696C152.389 51.9736 154.261 52.7256 156.725 52.7256C157.781 52.7256 158.869 52.5656 159.989 52.2456C161.141 51.9256 162.037 51.5096 162.677 50.9976L163.589 51.9576ZM153.701 34.1496C153.061 34.1496 152.485 34.2616 151.973 34.4856C151.493 34.7096 151.061 35.1256 150.677 35.7336C150.325 36.3096 150.037 37.1096 149.813 38.1336C149.589 39.1256 149.429 40.3896 149.333 41.9256H157.061C157.285 39.4296 157.141 37.5096 156.629 36.1656C156.117 34.8216 155.141 34.1496 153.701 34.1496ZM176.91 56.5656L167.31 35.0136C166.382 34.6936 165.534 34.3096 164.766 33.8616V31.9896H177.39V33.8136C176.974 34.0376 176.542 34.2616 176.094 34.4856C175.678 34.6776 175.198 34.8536 174.654 35.0136L179.118 47.3016L180.03 50.5176H180.126L180.894 47.2536L184.974 35.0136C184.462 34.8856 183.982 34.7256 183.534 34.5336C183.118 34.3416 182.718 34.1176 182.334 33.8616V31.9896H191.598V33.8616C191.278 34.0856 190.878 34.2936 190.398 34.4856C189.95 34.6776 189.438 34.8536 188.862 35.0136L180.462 55.9896L176.91 56.5656ZM194.097 33.9096C195.345 33.5896 196.321 33.0296 197.025 32.2296C197.729 31.4296 198.049 30.5976 197.985 29.7336C197.569 29.2216 197.041 28.8216 196.401 28.5336C195.793 28.2136 195.137 27.9416 194.433 27.7176C194.273 27.1416 194.241 26.5656 194.337 25.9896C194.465 25.3816 194.689 24.8376 195.009 24.3576C195.329 23.8456 195.697 23.4136 196.113 23.0616C196.561 22.7096 197.009 22.5016 197.457 22.4376C198.097 22.4696 198.737 22.6136 199.377 22.8696C200.017 23.0936 200.577 23.4296 201.057 23.8776C201.569 24.2936 201.969 24.8376 202.257 25.5096C202.577 26.1496 202.737 26.9176 202.737 27.8136C202.737 28.6776 202.545 29.5576 202.161 30.4536C201.777 31.3496 201.233 32.1816 200.529 32.9496C199.857 33.7176 199.041 34.3896 198.081 34.9656C197.121 35.5096 196.081 35.8936 194.961 36.1176L194.097 33.9096ZM219.007 50.7576C219.007 49.9256 218.703 49.2056 218.095 48.5976C217.519 47.9896 216.783 47.4296 215.887 46.9176C215.023 46.4056 214.063 45.8936 213.007 45.3816C211.983 44.8696 211.023 44.2776 210.127 43.6056C209.263 42.9016 208.527 42.0856 207.919 41.1576C207.343 40.2296 207.055 39.0936 207.055 37.7496C207.055 36.7896 207.279 35.9256 207.727 35.1576C208.175 34.3576 208.783 33.6856 209.551 33.1416C210.319 32.5976 211.231 32.1816 212.287 31.8936C213.375 31.5736 214.543 31.4136 215.791 31.4136C217.519 31.4136 219.119 31.5576 220.591 31.8456C222.095 32.1016 223.407 32.4696 224.527 32.9496C224.399 33.9736 224.143 35.0776 223.759 36.2616C223.375 37.4136 223.007 38.4696 222.655 39.4296H221.023L219.007 34.5336C218.623 34.3736 218.223 34.2776 217.807 34.2456C217.391 34.1816 216.927 34.1496 216.415 34.1496C215.455 34.1496 214.719 34.4376 214.207 35.0136C213.727 35.5576 213.487 36.1816 213.487 36.8856C213.487 37.6856 213.775 38.3896 214.351 38.9976C214.959 39.5736 215.695 40.1176 216.559 40.6296C217.455 41.1416 218.415 41.6536 219.439 42.1656C220.495 42.6776 221.455 43.2696 222.319 43.9416C223.215 44.5816 223.951 45.3496 224.527 46.2456C225.135 47.1416 225.439 48.2136 225.439 49.4616C225.439 51.6696 224.543 53.4136 222.751 54.6936C220.959 55.9416 218.559 56.5656 215.551 56.5656C214.015 56.5656 212.431 56.4056 210.799 56.0856C209.167 55.7656 207.759 55.3176 206.575 54.7416C206.639 53.5896 206.911 52.4216 207.391 51.2376C207.871 50.0536 208.383 48.9976 208.927 48.0696H210.559L212.911 53.3016C213.263 53.5576 213.647 53.7176 214.063 53.7816C214.511 53.8136 214.927 53.8296 215.311 53.8296C216.239 53.8296 217.087 53.5576 217.855 53.0136C218.623 52.4696 219.007 51.7176 219.007 50.7576Z" fill="white"/>
<defs>
<linearGradient id="paint0_linear_243_385" x1="53.2132" y1="23.0166" x2="53.2132" y2="99.4638" gradientUnits="userSpaceOnUse">
<stop/>
<stop offset="1" stop-color="#707070"/>
</linearGradient>
<linearGradient id="paint1_linear_243_385" x1="281.638" y1="23.0166" x2="281.638" y2="99.4638" gradientUnits="userSpaceOnUse">
<stop/>
<stop offset="1" stop-color="#707070"/>
</linearGradient>
<linearGradient id="paint2_linear_243_385" x1="105.968" y1="0" x2="105.968" y2="76.9793" gradientUnits="userSpaceOnUse">
<stop stop-color="#303030"/>
<stop offset="0.0001" stop-color="#242424"/>
<stop offset="1" stop-color="#212121"/>
</linearGradient>
</defs>
</svg>
